<svg width="48" height="48" viewBox="0 0 48 48" fill="none" xmlns="http://www.w3.org/2000/svg">
<rect width="48" height="48" rx="24" fill="#5E6776" fill-opacity="0.5"/>
<g clip-path="url(#clip0_4400_4690)">
<path d="M17 33C16.45 33 15.9793 32.8043 15.588 32.413C15.1967 32.0217 15.0007 31.5507 15 31V17C15 16.45 15.196 15.9793 15.588 15.588C15.98 15.1967 16.4507 15.0007 17 15H23.525C23.8583 15 24.1083 15.1043 24.275 15.313C24.4417 15.5217 24.525 15.7507 24.525 16C24.525 16.2493 24.4377 16.4787 24.263 16.688C24.0883 16.8973 23.834 17.0013 23.5 17H17V31H31V24.475C31 24.1417 31.1043 23.8917 31.313 23.725C31.5217 23.5583 31.7507 23.475 32 23.475C32.2493 23.475 32.4787 23.5583 32.688 23.725C32.8973 23.8917 33.0013 24.1417 33 24.475V31C33 31.55 32.8043 32.021 32.413 32.413C32.0217 32.805 31.5507 33.0007 31 33H17ZM21 26V23.575C21 23.3083 21.05 23.054 21.15 22.812C21.25 22.57 21.3917 22.3577 21.575 22.175L30.175 13.575C30.375 13.375 30.6 13.225 30.85 13.125C31.1 13.025 31.35 12.975 31.6 12.975C31.8667 12.975 32.121 13.025 32.363 13.125C32.605 13.225 32.8257 13.375 33.025 13.575L34.425 15C34.6083 15.2 34.75 15.421 34.85 15.663C34.95 15.905 35 16.1507 35 16.4C35 16.6493 34.9543 16.8953 34.863 17.138C34.7717 17.3807 34.6257 17.6013 34.425 17.8L25.825 26.4C25.6417 26.5833 25.4293 26.7293 25.188 26.838C24.9467 26.9467 24.6923 27.0007 24.425 27H22C21.7167 27 21.4793 26.904 21.288 26.712C21.0967 26.52 21.0007 26.2827 21 26ZM23 25H24.4L30.2 19.2L29.5 18.5L28.775 17.8L23 23.575V25Z" fill="white"/>
</g>
<defs>
<clipPath id="clip0_4400_4690">
<rect width="24" height="24" fill="white" transform="translate(12 12)"/>
</clipPath>
</defs>
</svg>
