<svg width="48" height="48" viewBox="0 0 48 48" fill="none" xmlns="http://www.w3.org/2000/svg">
<rect width="48" height="48" rx="24" fill="#5E6776" fill-opacity="0.5"/>
<g clip-path="url(#clip0_4400_4694)">
<path d="M19 33C18.45 33 17.9793 32.8043 17.588 32.413C17.1967 32.0217 17.0007 31.5507 17 31V18C16.7167 18 16.4793 17.904 16.288 17.712C16.0967 17.52 16.0007 17.2827 16 17C15.9993 16.7173 16.0953 16.48 16.288 16.288C16.4807 16.096 16.718 16 17 16H21C21 15.7167 21.096 15.4793 21.288 15.288C21.48 15.0967 21.7173 15.0007 22 15H26C26.2833 15 26.521 15.096 26.713 15.288C26.905 15.48 27.0007 15.7173 27 16H31C31.2833 16 31.521 16.096 31.713 16.288C31.905 16.48 32.0007 16.7173 32 17C31.9993 17.2827 31.9033 17.5203 31.712 17.713C31.5207 17.9057 31.2833 18.0013 31 18V31C31 31.55 30.8043 32.021 30.413 32.413C30.0217 32.805 29.5507 33.0007 29 33H19ZM29 18H19V31H29V18ZM22 29C22.2833 29 22.521 28.904 22.713 28.712C22.905 28.52 23.0007 28.2827 23 28V21C23 20.7167 22.904 20.4793 22.712 20.288C22.52 20.0967 22.2827 20.0007 22 20C21.7173 19.9993 21.48 20.0953 21.288 20.288C21.096 20.4807 21 20.718 21 21V28C21 28.2833 21.096 28.521 21.288 28.713C21.48 28.905 21.7173 29.0007 22 29ZM26 29C26.2833 29 26.521 28.904 26.713 28.712C26.905 28.52 27.0007 28.2827 27 28V21C27 20.7167 26.904 20.4793 26.712 20.288C26.52 20.0967 26.2827 20.0007 26 20C25.7173 19.9993 25.48 20.0953 25.288 20.288C25.096 20.4807 25 20.718 25 21V28C25 28.2833 25.096 28.521 25.288 28.713C25.48 28.905 25.7173 29.0007 26 29Z" fill="white"/>
</g>
<defs>
<clipPath id="clip0_4400_4694">
<rect width="24" height="24" fill="white" transform="translate(12 12)"/>
</clipPath>
</defs>
</svg>
