<svg width="20" height="20" viewBox="0 0 20 20" fill="none" xmlns="http://www.w3.org/2000/svg">
<g clip-path="url(#clip0_4400_2644)">
<path fill-rule="evenodd" clip-rule="evenodd" d="M13.5773 2.74408C13.9027 2.41864 14.4303 2.41864 14.7558 2.74408L17.2558 5.24408C17.5812 5.56952 17.5812 6.09715 17.2558 6.42259L14.7558 8.92258C14.4303 9.248 13.9027 9.248 13.5773 8.92258C13.2518 8.59717 13.2518 8.06952 13.5773 7.74407L14.6546 6.66672H6.54301C4.7557 6.66672 3.33317 8.12926 3.33317 10C3.33317 10.4603 2.96007 10.8333 2.49984 10.8333C2.0396 10.8333 1.6665 10.4603 1.6665 10C1.6665 7.26838 3.77675 5.00005 6.54301 5.00005H14.6547L13.5773 3.92259C13.2518 3.59715 13.2518 3.06952 13.5773 2.74408ZM17.4998 9.16667C17.9601 9.16667 18.3332 9.53975 18.3332 10C18.3332 12.7736 16.0228 15.0001 13.298 15.0001H5.34506L6.42243 16.0774C6.74786 16.4028 6.74786 16.9305 6.42243 17.2559C6.09699 17.5813 5.56935 17.5813 5.24391 17.2559L2.74391 14.7559C2.41848 14.4305 2.41848 13.9028 2.74391 13.5774L5.24391 11.0774C5.56935 10.752 6.09699 10.752 6.42243 11.0774C6.74786 11.4028 6.74786 11.9305 6.42243 12.2559L5.34496 13.3334H13.298C15.1268 13.3334 16.6665 11.8288 16.6665 10C16.6665 9.53975 17.0396 9.16667 17.4998 9.16667Z" fill="#3E9EE3"/>
</g>
<defs>
<clipPath id="clip0_4400_2644">
<rect width="20" height="20" fill="white"/>
</clipPath>
</defs>
</svg>
