<svg width="16" height="16" viewBox="0 0 16 16" fill="none" xmlns="http://www.w3.org/2000/svg">
<g clip-path="url(#clip0_4616_5602)">
<path d="M5.59424 0.585571C7.20213 0.0340018 8.94164 0.0135706 10.5571 0.523071L10.8784 0.632446C11.7937 0.972837 12.6338 1.48731 13.354 2.14612C13.245 2.26219 13.1329 2.3767 13.0181 2.48987L12.6313 2.87756C12.1613 3.34927 11.6899 3.81935 11.2183 4.2887C10.7995 3.89946 10.3096 3.59603 9.7749 3.39709L9.53467 3.31506L9.22119 3.23303C8.4863 3.06606 7.72001 3.07697 6.98779 3.26819C6.25581 3.45941 5.58223 3.82393 5.02295 4.32874L4.79053 4.55334C4.3316 5.02022 3.97027 5.5729 3.72607 6.17834L3.62842 6.44104C3.30646 7.38918 3.28612 8.41228 3.56787 9.36975L3.62842 9.56018C3.96587 10.5521 4.60834 11.4116 5.46338 12.0172V12.0182C5.92975 12.3504 6.45274 12.5943 7.00537 12.7389L7.24365 12.7946L7.24463 12.7955C7.876 12.9129 8.52439 12.9129 9.15576 12.7955L9.15479 12.7946C9.70629 12.7011 10.2355 12.5084 10.7163 12.2252L10.9194 12.0983H10.9204C11.3416 11.8142 11.7006 11.4474 11.9771 11.0211C12.2535 10.5948 12.4413 10.1173 12.5288 9.61682L12.5425 9.54358H8.22119V6.58264H15.5464C15.7729 7.86637 15.7247 9.18265 15.4058 10.4449L15.3374 10.7008C14.9846 11.9449 14.2997 13.0696 13.356 13.9537C12.5621 14.6751 11.6157 15.2052 10.5903 15.5065L10.146 15.6217C8.82386 15.9325 7.44548 15.9171 6.13037 15.5778H6.12939C4.50888 15.1422 3.07074 14.1985 2.02588 12.8854C1.04606 11.654 0.460239 10.1587 0.341309 8.59436L0.32373 8.27991C0.267467 6.70717 0.685932 5.15662 1.52002 3.82776L1.69189 3.56506C2.58121 2.26666 3.8388 1.26714 5.29932 0.69397L5.59424 0.585571Z" fill="white" stroke="#2F3540" stroke-width="0.125"/>
<path d="M5.57372 0.526245C7.3023 -0.067184 9.18196 -0.0508623 10.9 0.572495C11.8435 0.925699 12.708 1.46179 13.4437 2.14999C13.1937 2.41749 12.93 2.66749 12.675 2.92749C12.19 3.41166 11.7054 3.89416 11.2212 4.37499C10.7385 3.91342 10.1547 3.57098 9.51622 3.37499C8.69919 3.1283 7.82999 3.1114 7.00399 3.32617C6.178 3.54094 5.42711 3.97907 4.83372 4.59249C4.31576 5.11941 3.9235 5.75652 3.68622 6.45624L1.09497 4.44999C2.02248 2.6107 3.62841 1.20377 5.57372 0.526245Z" fill="#FF3D00"/>
<path d="M0.407438 6.43751C0.546714 5.74725 0.777942 5.0788 1.09494 4.45001L3.68619 6.46126C3.34721 7.45952 3.34721 8.54175 3.68619 9.54001C2.82285 10.2067 1.9591 10.8767 1.09494 11.55C0.301376 9.97041 0.0593537 8.17064 0.407438 6.43751Z" fill="#FFC107"/>
<path d="M8.15876 6.51874H15.5988C15.8533 7.9149 15.7844 9.35082 15.3975 10.7162C15.0416 11.9718 14.3501 13.1067 13.3975 13.9987C12.5613 13.3462 11.7213 12.6987 10.885 12.0462C11.2996 11.7666 11.6535 11.4061 11.9254 10.9864C12.1973 10.5667 12.3817 10.0964 12.4675 9.60374H8.15876C8.15751 8.57624 8.15876 7.54749 8.15876 6.51874Z" fill="#1976D2"/>
<path d="M1.09375 11.55C1.95792 10.8833 2.82167 10.2133 3.685 9.53998C4.01901 10.5202 4.65426 11.3698 5.5 11.9675C6.02751 12.3403 6.62691 12.5991 7.26 12.7275C7.88382 12.8435 8.52368 12.8435 9.1475 12.7275C9.76949 12.6222 10.3626 12.388 10.8888 12.04C11.725 12.6925 12.565 13.34 13.4012 13.9925C12.4861 14.8246 11.3705 15.4048 10.1637 15.6762C8.83176 15.9894 7.44365 15.9743 6.11875 15.6325C5.07088 15.3527 4.09209 14.8595 3.24375 14.1837C2.34583 13.4708 1.61244 12.5724 1.09375 11.55Z" fill="#4CAF50"/>
</g>
<defs>
<clipPath id="clip0_4616_5602">
<rect width="16" height="16" fill="white"/>
</clipPath>
</defs>
</svg>
