<svg width="16" height="16" viewBox="0 0 16 16" fill="none" xmlns="http://www.w3.org/2000/svg">
<g clip-path="url(#clip0_4616_2684)">
<path d="M12.0625 2.85938L11.6465 2.78809H11.6426C11.6404 2.78773 11.6376 2.78676 11.6338 2.78613C11.6261 2.78485 11.6147 2.78351 11.6006 2.78125C11.572 2.77668 11.5304 2.76936 11.4785 2.76172C11.3748 2.74645 11.2278 2.72627 11.0527 2.70605C10.7046 2.66586 10.2357 2.625 9.77148 2.625C8.75688 2.62505 7.86265 2.93461 7.22168 3.57617C6.58032 4.21825 6.25004 5.13522 6.25 6.2373V7.5H4.21875V10.8125H6.25V15.293C2.95228 14.5047 0.5 11.5391 0.5 8C0.5 3.85789 3.85789 0.5 8 0.5C12.1421 0.5 15.5 3.85789 15.5 8C15.5 11.5392 13.0477 14.5047 9.75 15.293V10.8125H11.543L11.6084 10.3887L11.9629 8.07617L12.0518 7.5H9.75V6.49902C9.75006 6.25575 9.81055 6.07683 9.90723 5.96484C9.99238 5.86638 10.1654 5.75001 10.5537 5.75H12.0625V2.85938Z" fill="#1877F2" stroke="#1877F2"/>
<path d="M11.1141 10.3125L11.4688 8H9.25V6.49937C9.25 5.86662 9.55994 5.25 10.5538 5.25H11.5625V3.28125C11.5625 3.28125 10.647 3.125 9.77169 3.125C7.94438 3.125 6.75 4.2325 6.75 6.2375V8H4.71875V10.3125H6.75V15.9028C7.16351 15.9676 7.58144 16.0001 8 16C8.41856 16.0001 8.83649 15.9676 9.25 15.9028V10.3125H11.1141Z" fill="white"/>
</g>
<defs>
<clipPath id="clip0_4616_2684">
<rect width="16" height="16" fill="white"/>
</clipPath>
</defs>
</svg>
