<svg width="16" height="16" viewBox="0 0 16 16" fill="none" xmlns="http://www.w3.org/2000/svg">
<path d="M13.5 2.75H2.50001C2.16849 2.75 1.85055 2.8817 1.61613 3.11612C1.38171 3.35054 1.25001 3.66848 1.25001 4V14C1.24901 14.238 1.31663 14.4713 1.44476 14.672C1.57289 14.8726 1.75612 15.032 1.97251 15.1313C2.1386 15.2091 2.31971 15.2496 2.50314 15.25C2.79666 15.2493 3.08048 15.1448 3.30439 14.955L3.31189 14.9481L5.27939 13.25H13.5C13.8315 13.25 14.1495 13.1183 14.3839 12.8839C14.6183 12.6495 14.75 12.3315 14.75 12V4C14.75 3.66848 14.6183 3.35054 14.3839 3.11612C14.1495 2.8817 13.8315 2.75 13.5 2.75ZM13.25 11.75H5.00001C4.82 11.7497 4.64596 11.8145 4.51001 11.9325L2.75001 13.4519V4.25H13.25V11.75Z" fill="#5E6776"/>
</svg>
