<svg width="40" height="40" viewBox="0 0 40 40" fill="none" xmlns="http://www.w3.org/2000/svg">
<rect width="40" height="40" rx="20" fill="#D6ECFA"/>
<g clip-path="url(#clip0_4022_30537)">
<path d="M21.2992 11.1479L29.9332 26.1019C30.0648 26.33 30.1341 26.5886 30.1341 26.8519C30.1341 27.1152 30.0648 27.3739 29.9332 27.6019C29.8015 27.83 29.6122 28.0193 29.3842 28.151C29.1561 28.2826 28.8975 28.3519 28.6342 28.3519H11.3662C11.1029 28.3519 10.8442 28.2826 10.6162 28.151C10.3882 28.0193 10.1988 27.83 10.0672 27.6019C9.93552 27.3739 9.86621 27.1152 9.86621 26.8519C9.86621 26.5886 9.93552 26.33 10.0672 26.1019L18.7012 11.1479C19.2782 10.1479 20.7212 10.1479 21.2992 11.1479ZM20.0002 12.8979L12.2322 26.3519H27.7682L20.0002 12.8979ZM20.0002 22.9999C20.2654 22.9999 20.5197 23.1053 20.7073 23.2928C20.8948 23.4804 21.0002 23.7347 21.0002 23.9999C21.0002 24.2652 20.8948 24.5195 20.7073 24.7071C20.5197 24.8946 20.2654 24.9999 20.0002 24.9999C19.735 24.9999 19.4806 24.8946 19.2931 24.7071C19.1055 24.5195 19.0002 24.2652 19.0002 23.9999C19.0002 23.7347 19.1055 23.4804 19.2931 23.2928C19.4806 23.1053 19.735 22.9999 20.0002 22.9999ZM20.0002 15.9999C20.2654 15.9999 20.5197 16.1053 20.7073 16.2928C20.8948 16.4804 21.0002 16.7347 21.0002 16.9999V20.9999C21.0002 21.2652 20.8948 21.5195 20.7073 21.7071C20.5197 21.8946 20.2654 21.9999 20.0002 21.9999C19.735 21.9999 19.4806 21.8946 19.2931 21.7071C19.1055 21.5195 19.0002 21.2652 19.0002 20.9999V16.9999C19.0002 16.7347 19.1055 16.4804 19.2931 16.2928C19.4806 16.1053 19.735 15.9999 20.0002 15.9999Z" fill="#3E9EE3"/>
</g>
<defs>
<clipPath id="clip0_4022_30537">
<rect width="24" height="24" fill="white" transform="translate(8 8)"/>
</clipPath>
</defs>
</svg>
