<svg width="14" height="15" viewBox="0 0 14 15" fill="none" xmlns="http://www.w3.org/2000/svg">
<g clip-path="url(#clip0_3624_26565)">
<path d="M7.00008 1.6665C10.2218 1.6665 12.8334 4.27809 12.8334 7.49984C12.8334 10.7216 10.2218 13.3332 7.00008 13.3332C3.77833 13.3332 1.16675 10.7216 1.16675 7.49984C1.16675 4.27809 3.77833 1.6665 7.00008 1.6665ZM7.00008 2.83317C5.7624 2.83317 4.57542 3.32484 3.70025 4.20001C2.82508 5.07518 2.33341 6.26216 2.33341 7.49984C2.33341 8.73751 2.82508 9.9245 3.70025 10.7997C4.57542 11.6748 5.7624 12.1665 7.00008 12.1665C8.23776 12.1665 9.42474 11.6748 10.2999 10.7997C11.1751 9.9245 11.6667 8.73751 11.6667 7.49984C11.6667 6.26216 11.1751 5.07518 10.2999 4.20001C9.42474 3.32484 8.23776 2.83317 7.00008 2.83317ZM9.06216 5.38875C9.1669 5.28302 9.30808 5.22132 9.45682 5.21627C9.60555 5.21123 9.7506 5.26322 9.86225 5.36161C9.97391 5.46 10.0437 5.59735 10.0574 5.74553C10.0712 5.89372 10.0277 6.04155 9.936 6.15875L9.88758 6.21359L6.62908 9.47267C6.51787 9.58387 6.36969 9.65035 6.21268 9.65949C6.05568 9.66863 5.90078 9.6198 5.77741 9.52225L5.72141 9.47267L4.11258 7.86384C4.00685 7.7591 3.94515 7.61792 3.9401 7.46918C3.93505 7.32045 3.98705 7.17541 4.08544 7.06375C4.18383 6.95209 4.32117 6.88226 4.46936 6.86855C4.61755 6.85484 4.76538 6.89829 4.88258 6.99L4.93741 7.039L6.17525 8.27625L9.06216 5.38875Z" fill="#22C55E"/>
</g>
<defs>
<clipPath id="clip0_3624_26565">
<rect width="14" height="14" fill="white" transform="translate(0 0.5)"/>
</clipPath>
</defs>
</svg>
