<svg width="40" height="40" viewBox="0 0 40 40" fill="none" xmlns="http://www.w3.org/2000/svg">
<rect width="40" height="40" rx="20" fill="#91C6F0"/>
<path d="M28.8934 19.0954L28.8884 19.0932L15.5422 13.5576C15.4299 13.5106 15.3078 13.4922 15.1867 13.5039C15.0655 13.5157 14.9492 13.5573 14.8481 13.6251C14.7413 13.6951 14.6536 13.7905 14.5928 13.9028C14.532 14.0152 14.5001 14.1408 14.5 14.2685V17.8088C14.5001 17.9834 14.561 18.1525 14.6724 18.2869C14.7837 18.4214 14.9385 18.5128 15.11 18.5454L22.3891 19.8913C22.4177 19.8968 22.4435 19.912 22.462 19.9344C22.4806 19.9568 22.4908 19.985 22.4908 20.0141C22.4908 20.0433 22.4806 20.0715 22.462 20.0939C22.4435 20.1163 22.4177 20.1315 22.3891 20.137L15.1103 21.4829C14.9389 21.5154 14.7841 21.6067 14.6727 21.741C14.5613 21.8753 14.5002 22.0443 14.5 22.2188V25.7598C14.4999 25.8817 14.5301 26.0018 14.5879 26.1092C14.6456 26.2166 14.7292 26.3079 14.8309 26.3751C14.9534 26.4564 15.0971 26.4999 15.2441 26.5001C15.3463 26.5 15.4474 26.4795 15.5416 26.4398L28.8875 20.9357L28.8934 20.9329C29.0731 20.8557 29.2262 20.7275 29.3337 20.5642C29.4413 20.4009 29.4986 20.2097 29.4986 20.0141C29.4986 19.8186 29.4413 19.6274 29.3337 19.4641C29.2262 19.3008 29.0731 19.1726 28.8934 19.0954Z" fill="white"/>
</svg>
