<svg width="40" height="40" viewBox="0 0 40 40" fill="none" xmlns="http://www.w3.org/2000/svg">
<rect width="40" height="40" rx="20" fill="#3E9EE3"/>
<path d="M28.8934 19.0953L28.8884 19.0931L15.5422 13.5575C15.4299 13.5105 15.3078 13.4921 15.1867 13.5039C15.0655 13.5157 14.9492 13.5573 14.8481 13.625C14.7413 13.695 14.6536 13.7905 14.5928 13.9028C14.532 14.0151 14.5001 14.1408 14.5 14.2685V17.8088C14.5001 17.9833 14.561 18.1524 14.6724 18.2869C14.7837 18.4213 14.9385 18.5127 15.11 18.5453L22.3891 19.8913C22.4177 19.8967 22.4435 19.9119 22.462 19.9343C22.4806 19.9568 22.4908 19.985 22.4908 20.0141C22.4908 20.0432 22.4806 20.0714 22.462 20.0938C22.4435 20.1162 22.4177 20.1315 22.3891 20.1369L15.1103 21.4828C14.9389 21.5153 14.7841 21.6066 14.6727 21.7409C14.5613 21.8753 14.5002 22.0443 14.5 22.2188V25.7597C14.4999 25.8816 14.5301 26.0017 14.5879 26.1091C14.6456 26.2165 14.7292 26.3079 14.8309 26.375C14.9534 26.4564 15.0971 26.4998 15.2441 26.5C15.3463 26.4999 15.4474 26.4794 15.5416 26.4397L28.8875 20.9356L28.8934 20.9328C29.0731 20.8556 29.2262 20.7274 29.3337 20.5642C29.4413 20.4009 29.4986 20.2096 29.4986 20.0141C29.4986 19.8185 29.4413 19.6273 29.3337 19.464C29.2262 19.3007 29.0731 19.1725 28.8934 19.0953Z" fill="white"/>
</svg>
