<svg width="16" height="16" viewBox="0 0 16 16" fill="none" xmlns="http://www.w3.org/2000/svg">
<rect width="16" height="16" rx="4" fill="#3E9EE3"/>
<path fill-rule="evenodd" clip-rule="evenodd" d="M12.773 4.55547C12.9136 4.69612 12.9926 4.88685 12.9926 5.08572C12.9926 5.2846 12.9136 5.47533 12.773 5.61597L7.15151 11.2375C7.07722 11.3118 6.98902 11.3707 6.89195 11.4109C6.79488 11.4512 6.69084 11.4719 6.58576 11.4719C6.48069 11.4719 6.37665 11.4512 6.27957 11.4109C6.1825 11.3707 6.0943 11.3118 6.02001 11.2375L3.22701 8.44497C3.15538 8.37579 3.09824 8.29303 3.05894 8.20153C3.01963 8.11002 2.99894 8.01161 2.99808 7.91202C2.99721 7.81244 3.01619 7.71368 3.0539 7.62151C3.09161 7.52933 3.1473 7.4456 3.21772 7.37518C3.28814 7.30476 3.37188 7.24907 3.46405 7.21136C3.55622 7.17365 3.65498 7.15467 3.75456 7.15553C3.85415 7.1564 3.95256 7.17709 4.04407 7.2164C4.13557 7.2557 4.21833 7.31284 4.28751 7.38447L6.58551 9.68247L11.712 4.55547C11.7817 4.48578 11.8644 4.43049 11.9554 4.39277C12.0464 4.35505 12.144 4.33563 12.2425 4.33563C12.341 4.33563 12.4386 4.35505 12.5296 4.39277C12.6207 4.43049 12.7034 4.48578 12.773 4.55547Z" fill="#EBF5FC"/>
</svg>
