<svg width="48" height="48" viewBox="0 0 48 48" fill="none" xmlns="http://www.w3.org/2000/svg">
<rect width="48" height="48" rx="24" fill="#D6ECFA"/>
<g clip-path="url(#clip0_3515_27674)">
<path d="M14 17.995C14 17.445 14.446 17 14.995 17H29.2361C29.5 17 29.7531 17.1048 29.9397 17.2914C30.1263 17.478 30.2311 17.7311 30.2311 17.995C30.2311 18.2589 30.1263 18.512 29.9397 18.6986C29.7531 18.8852 29.5 18.99 29.2361 18.99H14.995C14.445 18.99 14 18.545 14 17.995ZM14 24C14 23.45 14.446 23.005 14.995 23.005H33.005C33.2689 23.005 33.522 23.1098 33.7086 23.2964C33.8952 23.483 34 23.7361 34 24C34 24.2639 33.8952 24.517 33.7086 24.7036C33.522 24.8902 33.2689 24.995 33.005 24.995H14.995C14.445 24.995 14 24.549 14 24ZM14.995 29.01C14.7311 29.01 14.478 29.1148 14.2914 29.3014C14.1048 29.488 14 29.7411 14 30.005C14 30.2689 14.1048 30.522 14.2914 30.7086C14.478 30.8952 14.7311 31 14.995 31H27.005C27.1357 31 27.2651 30.9743 27.3858 30.9243C27.5065 30.8743 27.6162 30.801 27.7086 30.7086C27.801 30.6162 27.8743 30.5065 27.9243 30.3858C27.9743 30.2651 28 30.1357 28 30.005C28 29.8743 27.9743 29.7449 27.9243 29.6242C27.8743 29.5035 27.801 29.3938 27.7086 29.3014C27.6162 29.209 27.5065 29.1357 27.3858 29.0857C27.2651 29.0357 27.1357 29.01 27.005 29.01H14.995Z" fill="#3E9EE3"/>
</g>
<defs>
<clipPath id="clip0_3515_27674">
<rect width="24" height="24" fill="white" transform="translate(12 12)"/>
</clipPath>
</defs>
</svg>
