<svg width="48" height="48" viewBox="0 0 48 48" fill="none" xmlns="http://www.w3.org/2000/svg">
<rect width="48" height="48" rx="24" fill="#D6ECFA"/>
<g clip-path="url(#clip0_3515_27683)">
<path d="M22.292 14.396C22.416 14.52 22.498 14.65 22.55 14.746C22.629 14.891 22.688 15.046 22.735 15.186C22.825 15.454 22.917 15.811 23.022 16.218L26.702 30.458L28.31 24.4L28.323 24.35L28.326 24.339C28.37 24.169 28.443 23.885 28.609 23.646C28.7599 23.4261 28.9666 23.2504 29.208 23.137C29.399 23.047 29.577 23.02 29.708 23.01C29.813 23 29.928 23.001 30.016 23.001H33C33.2652 23.001 33.5196 23.1064 33.7071 23.2939C33.8946 23.4814 34 23.7358 34 24.001C34 24.2662 33.8946 24.5206 33.7071 24.7081C33.5196 24.8957 33.2652 25.001 33 25.001H30.22L28.416 31.796C28.308 32.202 28.214 32.558 28.122 32.826C28.0711 32.9775 28.0083 33.1246 27.934 33.266C27.8259 33.4676 27.67 33.6396 27.48 33.767C27.2447 33.9201 26.9698 34.0011 26.6891 34.0001C26.4084 33.999 26.1341 33.9159 25.9 33.761C25.711 33.632 25.5565 33.4586 25.45 33.256C25.3767 33.1142 25.3148 32.9667 25.265 32.815C25.175 32.547 25.083 32.19 24.978 31.783L21.298 17.543L19.69 23.6L19.677 23.65L19.674 23.661C19.63 23.831 19.556 24.115 19.391 24.354C19.2401 24.5739 19.0334 24.7496 18.792 24.863C18.601 24.953 18.423 24.98 18.292 24.99C18.187 25 18.072 24.999 17.984 24.999H15C14.7348 24.999 14.4804 24.8937 14.2929 24.7061C14.1054 24.5186 14 24.2642 14 23.999C14 23.7338 14.1054 23.4794 14.2929 23.2919C14.4804 23.1044 14.7348 22.999 15 22.999H17.78L19.584 16.203C19.692 15.798 19.786 15.441 19.878 15.175C19.926 15.035 19.986 14.88 20.066 14.735C20.174 14.5331 20.3299 14.3607 20.52 14.233C20.7905 14.0567 21.1126 13.9768 21.4341 14.0062C21.7557 14.0356 22.0579 14.1736 22.292 14.396Z" fill="#3E9EE3"/>
</g>
<defs>
<clipPath id="clip0_3515_27683">
<rect width="24" height="24" fill="white" transform="translate(12 12)"/>
</clipPath>
</defs>
</svg>
