<svg width="16" height="16" viewBox="0 0 16 16" fill="none" xmlns="http://www.w3.org/2000/svg">
<g clip-path="url(#clip0_3879_3673)">
<g clip-path="url(#clip1_3879_3673)">
<path d="M13.6015 1.5H9.76084C9.64142 1.49991 9.52682 1.5471 9.44209 1.63125L1.76397 9.30938C1.59585 9.47832 1.50146 9.70697 1.50146 9.94531C1.50146 10.1837 1.59585 10.4123 1.76397 10.5813L5.42022 14.2375C5.58916 14.4056 5.81781 14.5 6.05615 14.5C6.2945 14.5 6.52314 14.4056 6.69209 14.2375L14.3671 6.5625C14.4512 6.47777 14.4984 6.36317 14.4983 6.24375V2.4C14.4989 2.28191 14.4761 2.16488 14.4313 2.05563C14.3865 1.94638 14.3205 1.84707 14.2371 1.76342C14.1538 1.67978 14.0547 1.61344 13.9456 1.56823C13.8365 1.52302 13.7196 1.49983 13.6015 1.5Z" stroke="#8691A7" stroke-width="1.5" stroke-linecap="round" stroke-linejoin="round"/>
<path d="M12 5C11.8022 5 11.6089 4.94135 11.4444 4.83147C11.28 4.72159 11.1518 4.56541 11.0761 4.38268C11.0004 4.19996 10.9806 3.99889 11.0192 3.80491C11.0578 3.61093 11.153 3.43275 11.2929 3.29289C11.4327 3.15304 11.6109 3.0578 11.8049 3.01922C11.9989 2.98063 12.2 3.00043 12.3827 3.07612C12.5654 3.15181 12.7216 3.27998 12.8315 3.44443C12.9414 3.60888 13 3.80222 13 4C13 4.26522 12.8946 4.51957 12.7071 4.70711C12.5196 4.89464 12.2652 5 12 5Z" fill="#8691A7"/>
</g>
</g>
<defs>
<clipPath id="clip0_3879_3673">
<rect width="16" height="16" fill="white"/>
</clipPath>
<clipPath id="clip1_3879_3673">
<rect width="16" height="16" fill="white"/>
</clipPath>
</defs>
</svg>
