<svg width="16" height="16" viewBox="0 0 16 16" fill="none" xmlns="http://www.w3.org/2000/svg">
<g clip-path="url(#clip0_3879_3685)">
<path d="M7.835 8.29375C7.03269 8.29375 6.37625 7.63731 6.37625 6.835C6.37625 6.03269 7.03269 5.37625 7.835 5.37625C8.63731 5.37625 9.29375 6.03269 9.29375 6.835C9.29375 7.63731 8.63731 8.29375 7.835 8.29375ZM12.2113 6.98087C12.2113 4.33324 10.2784 2.45875 7.835 2.45875C5.39159 2.45875 3.45875 4.33324 3.45875 6.98087C3.45875 8.68761 4.88103 10.9487 7.835 13.6474C10.789 10.9487 12.2113 8.68761 12.2113 6.98087ZM7.835 1C10.8984 1 13.67 3.34859 13.67 6.98087C13.67 9.4024 11.7226 12.2688 7.835 15.5875C3.94743 12.2688 2 9.4024 2 6.98087C2 3.34859 4.77163 1 7.835 1Z" fill="#8691A7"/>
</g>
<defs>
<clipPath id="clip0_3879_3685">
<rect width="16" height="16" fill="white"/>
</clipPath>
</defs>
</svg>
