<svg width="16" height="16" viewBox="0 0 16 16" fill="none" xmlns="http://www.w3.org/2000/svg">
<g clip-path="url(#clip0_3879_3690)">
<path fill-rule="evenodd" clip-rule="evenodd" d="M10.8619 2.19526C11.1222 1.93491 11.5443 1.93491 11.8047 2.19526L13.8047 4.19526C14.065 4.45561 14.065 4.87772 13.8047 5.13807L11.8047 7.13807C11.5443 7.3984 11.1222 7.3984 10.8619 7.13807C10.6015 6.87773 10.6015 6.45561 10.8619 6.19526L11.7237 5.33337H5.23446C3.80461 5.33337 2.66659 6.50341 2.66659 8C2.66659 8.3682 2.36811 8.66667 1.99992 8.66667C1.63173 8.66667 1.33325 8.3682 1.33325 8C1.33325 5.8147 3.02145 4.00004 5.23446 4.00004H11.7238L10.8619 3.13807C10.6015 2.87772 10.6015 2.45561 10.8619 2.19526ZM13.9999 7.33333C14.3681 7.33333 14.6666 7.6318 14.6666 8C14.6666 10.2189 12.8183 12.0001 10.6385 12.0001H4.2761L5.13799 12.8619C5.39834 13.1223 5.39834 13.5444 5.13799 13.8047C4.87764 14.0651 4.45553 14.0651 4.19518 13.8047L2.19518 11.8047C1.93483 11.5444 1.93483 11.1223 2.19518 10.8619L4.19518 8.86193C4.45553 8.6016 4.87764 8.6016 5.13799 8.86193C5.39834 9.12227 5.39834 9.5444 5.13799 9.80473L4.27602 10.6667H10.6385C12.1015 10.6667 13.3333 9.463 13.3333 8C13.3333 7.6318 13.6317 7.33333 13.9999 7.33333Z" fill="#8691A7"/>
</g>
<defs>
<clipPath id="clip0_3879_3690">
<rect width="16" height="16" fill="white"/>
</clipPath>
</defs>
</svg>
