<svg width="340" height="513" viewBox="0 0 340 513" fill="none" xmlns="http://www.w3.org/2000/svg">
<rect width="341" height="513" fill="#E1E7EF"/>
<rect x="133" y="219" width="80" height="80" rx="40" fill="#A0A9B8"/>
<rect x="157.5" y="243.5" width="31" height="31" rx="15.5" fill="#E1E7EF"/>
<rect x="157.5" y="243.5" width="31" height="31" rx="15.5" stroke="#8691A7"/>
<g clip-path="url(#clip0_3684_1936)">
<path d="M179 251.25H167C166.271 251.25 165.571 251.54 165.055 252.055C164.54 252.571 164.25 253.271 164.25 254V264C164.25 264.729 164.54 265.429 165.055 265.945C165.571 266.46 166.271 266.75 167 266.75H179C179.729 266.75 180.429 266.46 180.945 265.945C181.46 265.429 181.75 264.729 181.75 264V254C181.75 253.271 181.46 252.571 180.945 252.055C180.429 251.54 179.729 251.25 179 251.25ZM167 252.75H179C179.332 252.75 179.649 252.882 179.884 253.116C180.118 253.351 180.25 253.668 180.25 254V262.19L177.53 259.47C177.459 259.394 177.372 259.335 177.275 259.297C177.178 259.259 177.074 259.243 176.97 259.25C176.865 259.257 176.763 259.284 176.668 259.33C176.574 259.377 176.489 259.441 176.42 259.52L175.13 261.07L170.53 256.47C170.462 256.398 170.38 256.341 170.289 256.303C170.197 256.265 170.099 256.247 170 256.25C169.895 256.257 169.793 256.284 169.698 256.33C169.604 256.377 169.519 256.441 169.45 256.52L165.75 260.93V254C165.75 253.836 165.782 253.673 165.845 253.522C165.908 253.37 166 253.232 166.116 253.116C166.232 253 166.37 252.908 166.522 252.845C166.673 252.782 166.836 252.75 167 252.75ZM165.75 264V263.27L170.05 258.11L174.17 262.23L171.65 265.23H167C166.672 265.23 166.357 265.101 166.123 264.871C165.889 264.641 165.755 264.328 165.75 264ZM179 265.25H173.6L177.05 261.11L180.2 264.26C180.145 264.538 179.995 264.788 179.776 264.969C179.558 265.149 179.283 265.249 179 265.25Z" fill="#8691A7"/>
</g>
<defs>
<clipPath id="clip0_3684_1936">
<rect width="24" height="24" fill="white" transform="translate(161 247)"/>
</clipPath>
</defs>
</svg>
