<svg width="16" height="16" viewBox="0 0 16 16" fill="none" xmlns="http://www.w3.org/2000/svg">
<path d="M7.99325 1.3335C4.31325 1.3335 1.33325 4.32016 1.33325 8.00016C1.33325 11.6802 4.31325 14.6668 7.99325 14.6668C11.6799 14.6668 14.6666 11.6802 14.6666 8.00016C14.6666 4.32016 11.6799 1.3335 7.99325 1.3335ZM12.6133 5.3335H10.6466C10.4376 4.5079 10.1287 3.7109 9.72658 2.96016C10.9427 3.37883 11.9674 4.22131 12.6133 5.3335ZM7.99992 2.6935C8.55325 3.4935 8.98658 4.38016 9.27325 5.3335H6.72658C7.01325 4.38016 7.44658 3.4935 7.99992 2.6935ZM2.83992 9.3335C2.73325 8.90683 2.66659 8.46016 2.66659 8.00016C2.66659 7.54016 2.73325 7.0935 2.83992 6.66683H5.09325C5.03992 7.10683 4.99992 7.54683 4.99992 8.00016C4.99992 8.4535 5.03992 8.8935 5.09325 9.3335H2.83992ZM3.38658 10.6668H5.35325C5.56659 11.5002 5.87325 12.3002 6.27325 13.0402C5.05628 12.6231 4.03108 11.7802 3.38658 10.6668ZM5.35325 5.3335H3.38658C4.03108 4.22013 5.05628 3.37724 6.27325 2.96016C5.87117 3.7109 5.56222 4.5079 5.35325 5.3335ZM7.99992 13.3068C7.44658 12.5068 7.01325 11.6202 6.72658 10.6668H9.27325C8.98658 11.6202 8.55325 12.5068 7.99992 13.3068ZM9.55992 9.3335H6.43992C6.37992 8.8935 6.33325 8.4535 6.33325 8.00016C6.33325 7.54683 6.37992 7.10016 6.43992 6.66683H9.55992C9.61992 7.10016 9.66658 7.54683 9.66658 8.00016C9.66658 8.4535 9.61992 8.8935 9.55992 9.3335ZM9.72658 13.0402C10.1266 12.3002 10.4333 11.5002 10.6466 10.6668H12.6133C11.9674 11.779 10.9427 12.6215 9.72658 13.0402ZM10.9066 9.3335C10.9599 8.8935 10.9999 8.4535 10.9999 8.00016C10.9999 7.54683 10.9599 7.10683 10.9066 6.66683H13.1599C13.2666 7.0935 13.3333 7.54016 13.3333 8.00016C13.3333 8.46016 13.2666 8.90683 13.1599 9.3335H10.9066Z" fill="#8691A7"/>
</svg>
