<svg width="16" height="17" viewBox="0 0 16 17" fill="none" xmlns="http://www.w3.org/2000/svg">
<path d="M7.9935 1.83334C4.3135 1.83334 1.3335 4.82001 1.3335 8.50001C1.3335 12.18 4.3135 15.1667 7.9935 15.1667C11.6802 15.1667 14.6668 12.18 14.6668 8.50001C14.6668 4.82001 11.6802 1.83334 7.9935 1.83334ZM12.6135 5.83334H10.6468C10.4379 5.00775 10.1289 4.21075 9.72683 3.46001C10.9429 3.87868 11.9676 4.72116 12.6135 5.83334ZM8.00016 3.19334C8.5535 3.99334 8.98683 4.88001 9.2735 5.83334H6.72683C7.0135 4.88001 7.44683 3.99334 8.00016 3.19334ZM2.84016 9.83334C2.7335 9.40668 2.66683 8.96001 2.66683 8.50001C2.66683 8.04001 2.7335 7.59334 2.84016 7.16668H5.0935C5.04016 7.60668 5.00016 8.04668 5.00016 8.50001C5.00016 8.95334 5.04016 9.39334 5.0935 9.83334H2.84016ZM3.38683 11.1667H5.3535C5.56683 12 5.8735 12.8 6.2735 13.54C5.05653 13.1229 4.03132 12.28 3.38683 11.1667ZM5.3535 5.83334H3.38683C4.03132 4.71998 5.05653 3.87708 6.2735 3.46001C5.87142 4.21075 5.56247 5.00775 5.3535 5.83334ZM8.00016 13.8067C7.44683 13.0067 7.0135 12.12 6.72683 11.1667H9.2735C8.98683 12.12 8.5535 13.0067 8.00016 13.8067ZM9.56016 9.83334H6.44016C6.38016 9.39334 6.3335 8.95334 6.3335 8.50001C6.3335 8.04668 6.38016 7.60001 6.44016 7.16668H9.56016C9.62016 7.60001 9.66683 8.04668 9.66683 8.50001C9.66683 8.95334 9.62016 9.39334 9.56016 9.83334ZM9.72683 13.54C10.1268 12.8 10.4335 12 10.6468 11.1667H12.6135C11.9676 12.2789 10.9429 13.1213 9.72683 13.54ZM10.9068 9.83334C10.9602 9.39334 11.0002 8.95334 11.0002 8.50001C11.0002 8.04668 10.9602 7.60668 10.9068 7.16668H13.1602C13.2668 7.59334 13.3335 8.04001 13.3335 8.50001C13.3335 8.96001 13.2668 9.40668 13.1602 9.83334H10.9068Z" fill="#3E9EE3"/>
</svg>
