<svg width="64" height="64" viewBox="0 0 64 64" fill="none" xmlns="http://www.w3.org/2000/svg">
<rect width="64" height="64" rx="32" fill="#3E9EE3"/>
<g clip-path="url(#clip0_3560_25962)">
<path d="M39.9998 33.3307H33.3332V39.9974C33.3332 40.351 33.1927 40.6902 32.9426 40.9402C32.6926 41.1903 32.3535 41.3307 31.9998 41.3307C31.6462 41.3307 31.3071 41.1903 31.057 40.9402C30.807 40.6902 30.6665 40.351 30.6665 39.9974V33.3307H23.9998C23.6462 33.3307 23.3071 33.1903 23.057 32.9402C22.807 32.6902 22.6665 32.351 22.6665 31.9974C22.6665 31.6438 22.807 31.3046 23.057 31.0546C23.3071 30.8045 23.6462 30.6641 23.9998 30.6641H30.6665V23.9974C30.6665 23.6438 30.807 23.3046 31.057 23.0546C31.3071 22.8045 31.6462 22.6641 31.9998 22.6641C32.3535 22.6641 32.6926 22.8045 32.9426 23.0546C33.1927 23.3046 33.3332 23.6438 33.3332 23.9974V30.6641H39.9998C40.3535 30.6641 40.6926 30.8045 40.9426 31.0546C41.1927 31.3046 41.3332 31.6438 41.3332 31.9974C41.3332 32.351 41.1927 32.6902 40.9426 32.9402C40.6926 33.1903 40.3535 33.3307 39.9998 33.3307Z" fill="#EBF5FC"/>
</g>
<defs>
<clipPath id="clip0_3560_25962">
<rect width="32" height="32" fill="white" transform="translate(16 16)"/>
</clipPath>
</defs>
</svg>
