<svg width="64" height="64" viewBox="0 0 64 64" fill="none" xmlns="http://www.w3.org/2000/svg">
<rect width="64" height="64" rx="32" fill="#D6ECFA"/>
<g clip-path="url(#clip0_4424_9245)">
<path d="M39.9998 33.3307H33.3332V39.9973C33.3332 40.351 33.1927 40.6901 32.9426 40.9401C32.6926 41.1902 32.3535 41.3307 31.9998 41.3307C31.6462 41.3307 31.3071 41.1902 31.057 40.9401C30.807 40.6901 30.6665 40.351 30.6665 39.9973V33.3307H23.9998C23.6462 33.3307 23.3071 33.1902 23.057 32.9401C22.807 32.6901 22.6665 32.351 22.6665 31.9973C22.6665 31.6437 22.807 31.3046 23.057 31.0545C23.3071 30.8045 23.6462 30.664 23.9998 30.664H30.6665V23.9973C30.6665 23.6437 30.807 23.3046 31.057 23.0545C31.3071 22.8045 31.6462 22.664 31.9998 22.664C32.3535 22.664 32.6926 22.8045 32.9426 23.0545C33.1927 23.3046 33.3332 23.6437 33.3332 23.9973V30.664H39.9998C40.3535 30.664 40.6926 30.8045 40.9426 31.0545C41.1927 31.3046 41.3332 31.6437 41.3332 31.9973C41.3332 32.351 41.1927 32.6901 40.9426 32.9401C40.6926 33.1902 40.3535 33.3307 39.9998 33.3307Z" fill="#3E9EE3"/>
</g>
<defs>
<clipPath id="clip0_4424_9245">
<rect width="32" height="32" fill="white" transform="translate(16 16)"/>
</clipPath>
</defs>
</svg>
