<svg width="16" height="16" viewBox="0 0 16 16" fill="none" xmlns="http://www.w3.org/2000/svg">
<path d="M4.5384 1C4.68692 1 4.82936 1.05162 4.93438 1.14352C5.0394 1.23541 5.0984 1.36004 5.0984 1.49V2.4063H11.112V1.4963C11.112 1.36634 11.171 1.24171 11.276 1.14982C11.381 1.05792 11.5235 1.0063 11.672 1.0063C11.8205 1.0063 11.963 1.05792 12.068 1.14982C12.173 1.24171 12.232 1.36634 12.232 1.4963V2.4063H14.4C14.8242 2.4063 15.2311 2.5537 15.5311 2.8161C15.8311 3.0785 15.9998 3.43442 16 3.8056V13.6007C15.9998 13.9719 15.8311 14.3278 15.5311 14.5902C15.2311 14.8526 14.8242 15 14.4 15H1.6C1.17579 15 0.768947 14.8526 0.468912 14.5902C0.168877 14.3278 0.000212104 13.9719 0 13.6007L0 3.8056C0.000212104 3.43442 0.168877 3.0785 0.468912 2.8161C0.768947 2.5537 1.17579 2.4063 1.6 2.4063H3.9784V1.4893C3.97861 1.35947 4.03771 1.23501 4.1427 1.14327C4.2477 1.05153 4.39002 1 4.5384 1ZM1.12 6.4194V13.6007C1.12 13.6559 1.13242 13.7105 1.15654 13.7614C1.18066 13.8124 1.21602 13.8587 1.26059 13.8977C1.30516 13.9367 1.35808 13.9676 1.41631 13.9887C1.47455 14.0098 1.53697 14.0207 1.6 14.0207H14.4C14.463 14.0207 14.5255 14.0098 14.5837 13.9887C14.6419 13.9676 14.6948 13.9367 14.7394 13.8977C14.784 13.8587 14.8193 13.8124 14.8435 13.7614C14.8676 13.7105 14.88 13.6559 14.88 13.6007V6.4292L1.12 6.4194ZM5.3336 11.2333V12.3995H4V11.2333H5.3336ZM8.6664 11.2333V12.3995H7.3336V11.2333H8.6664ZM12 11.2333V12.3995H10.6664V11.2333H12ZM5.3336 8.4494V9.6156H4V8.4494H5.3336ZM8.6664 8.4494V9.6156H7.3336V8.4494H8.6664ZM12 8.4494V9.6156H10.6664V8.4494H12ZM3.9784 3.3856H1.6C1.53697 3.3856 1.47455 3.39646 1.41631 3.41757C1.35808 3.43868 1.30516 3.46961 1.26059 3.50862C1.21602 3.54762 1.18066 3.59392 1.15654 3.64487C1.13242 3.69583 1.12 3.75044 1.12 3.8056V5.4401L14.88 5.4499V3.8056C14.88 3.75044 14.8676 3.69583 14.8435 3.64487C14.8193 3.59392 14.784 3.54762 14.7394 3.50862C14.6948 3.46961 14.6419 3.43868 14.5837 3.41757C14.5255 3.39646 14.463 3.3856 14.4 3.3856H12.232V4.0359C12.232 4.16586 12.173 4.29049 12.068 4.38238C11.963 4.47428 11.8205 4.5259 11.672 4.5259C11.5235 4.5259 11.381 4.47428 11.276 4.38238C11.171 4.29049 11.112 4.16586 11.112 4.0359V3.3856H5.0984V4.0296C5.0984 4.15956 5.0394 4.28419 4.93438 4.37608C4.82936 4.46798 4.68692 4.5196 4.5384 4.5196C4.38988 4.5196 4.24744 4.46798 4.14242 4.37608C4.0374 4.28419 3.9784 4.15956 3.9784 4.0296V3.3856Z" fill="#8691A7"/>
</svg>
