<svg width="24" height="24" viewBox="0 0 24 24" fill="none" xmlns="http://www.w3.org/2000/svg">
<g clip-path="url(#clip0_4027_3290)">
<mask id="path-1-inside-1_4027_3290" fill="white">
<path fill-rule="evenodd" clip-rule="evenodd" d="M16.2929 3.29289C16.6834 2.90237 17.3166 2.90237 17.7071 3.29289L20.7071 6.29289C21.0976 6.68342 21.0976 7.31658 20.7071 7.70711L17.7071 10.7071C17.3166 11.0976 16.6834 11.0976 16.2929 10.7071C15.9024 10.3166 15.9024 9.68342 16.2929 9.29289L17.5857 8.00006H7.85181C5.70703 8.00006 4 9.75511 4 12C4 12.5523 3.55228 13 3 13C2.44772 13 2 12.5523 2 12C2 8.72205 4.53229 6.00006 7.85181 6.00006H17.5858L16.2929 4.70711C15.9024 4.31658 15.9024 3.68342 16.2929 3.29289ZM21 11C21.5523 11 22 11.4477 22 12C22 15.3283 19.2275 18.0001 15.9578 18.0001H6.41427L7.70711 19.2929C8.09763 19.6834 8.09763 20.3166 7.70711 20.7071C7.31658 21.0976 6.68342 21.0976 6.29289 20.7071L3.29289 17.7071C2.90237 17.3166 2.90237 16.6834 3.29289 16.2929L6.29289 13.2929C6.68342 12.9024 7.31658 12.9024 7.70711 13.2929C8.09763 13.6834 8.09763 14.3166 7.70711 14.7071L6.41415 16.0001H15.9578C18.1524 16.0001 20 14.1945 20 12C20 11.4477 20.4477 11 21 11Z"/>
</mask>
<path fill-rule="evenodd" clip-rule="evenodd" d="M16.2929 3.29289C16.6834 2.90237 17.3166 2.90237 17.7071 3.29289L20.7071 6.29289C21.0976 6.68342 21.0976 7.31658 20.7071 7.70711L17.7071 10.7071C17.3166 11.0976 16.6834 11.0976 16.2929 10.7071C15.9024 10.3166 15.9024 9.68342 16.2929 9.29289L17.5857 8.00006H7.85181C5.70703 8.00006 4 9.75511 4 12C4 12.5523 3.55228 13 3 13C2.44772 13 2 12.5523 2 12C2 8.72205 4.53229 6.00006 7.85181 6.00006H17.5858L16.2929 4.70711C15.9024 4.31658 15.9024 3.68342 16.2929 3.29289ZM21 11C21.5523 11 22 11.4477 22 12C22 15.3283 19.2275 18.0001 15.9578 18.0001H6.41427L7.70711 19.2929C8.09763 19.6834 8.09763 20.3166 7.70711 20.7071C7.31658 21.0976 6.68342 21.0976 6.29289 20.7071L3.29289 17.7071C2.90237 17.3166 2.90237 16.6834 3.29289 16.2929L6.29289 13.2929C6.68342 12.9024 7.31658 12.9024 7.70711 13.2929C8.09763 13.6834 8.09763 14.3166 7.70711 14.7071L6.41415 16.0001H15.9578C18.1524 16.0001 20 14.1945 20 12C20 11.4477 20.4477 11 21 11Z" fill="#8691A7"/>
<path d="M16.2929 3.29289L14.5251 1.52517L14.5251 1.52519L16.2929 3.29289ZM17.7071 3.29289L15.9393 5.06061L15.9393 5.06066L17.7071 3.29289ZM20.7071 6.29289L22.4749 4.52519L22.4749 4.52512L20.7071 6.29289ZM20.7071 7.70711L22.4749 9.47488L22.4749 9.47481L20.7071 7.70711ZM17.7071 10.7071L15.9393 8.93933L15.9393 8.93933L17.7071 10.7071ZM16.2929 9.29289L14.5251 7.52514L14.5251 7.52519L16.2929 9.29289ZM17.5857 8.00006L19.3535 9.76781L23.6211 5.50006H17.5857V8.00006ZM17.5858 6.00006V8.50006H23.6212L19.3536 4.23233L17.5858 6.00006ZM16.2929 4.70711L14.5251 6.47481L14.5251 6.47484L16.2929 4.70711ZM6.41427 18.0001V15.5001H0.378607L4.64653 19.7679L6.41427 18.0001ZM7.70711 19.2929L5.93937 21.0607L5.93939 21.0607L7.70711 19.2929ZM7.70711 20.7071L9.47481 22.4749L9.47483 22.4749L7.70711 20.7071ZM6.29289 20.7071L4.52512 22.4749L4.52519 22.4749L6.29289 20.7071ZM3.29289 17.7071L5.06066 15.9393L5.06061 15.9393L3.29289 17.7071ZM3.29289 16.2929L5.06061 18.0607L5.06066 18.0607L3.29289 16.2929ZM6.29289 13.2929L4.52519 11.5251L4.52512 11.5251L6.29289 13.2929ZM7.70711 13.2929L9.47483 11.5251L9.47481 11.5251L7.70711 13.2929ZM7.70711 14.7071L5.93939 12.9393L5.93932 12.9394L7.70711 14.7071ZM6.41415 16.0001L4.64636 14.2324L0.378747 18.5001H6.41415V16.0001ZM18.0607 5.06061C17.4749 5.64646 16.5251 5.64646 15.9393 5.06061L19.4749 1.52517C18.1081 0.158277 15.8919 0.158277 14.5251 1.52517L18.0607 5.06061ZM15.9393 5.06066L18.9393 8.06066L22.4749 4.52512L19.4749 1.52512L15.9393 5.06066ZM18.9393 8.06059C18.3535 7.47482 18.3535 6.52518 18.9393 5.93941L22.4749 9.47481C23.8417 8.10798 23.8417 5.89202 22.4749 4.52519L18.9393 8.06059ZM18.9393 5.93934L15.9393 8.93933L19.4749 12.4749L22.4749 9.47488L18.9393 5.93934ZM15.9393 8.93933C16.5251 8.35352 17.4749 8.35352 18.0607 8.93933L14.5251 12.4749C15.8919 13.8417 18.1081 13.8417 19.4749 12.4749L15.9393 8.93933ZM18.0607 8.93933C18.6465 9.52518 18.6464 10.4749 18.0607 11.0606L14.5251 7.52519C13.1584 8.89198 13.1583 11.108 14.5251 12.4749L18.0607 8.93933ZM18.0607 11.0606L19.3535 9.76781L15.8179 6.23231L14.5251 7.52514L18.0607 11.0606ZM17.5857 5.50006H7.85181V10.5001H17.5857V5.50006ZM7.85181 5.50006C4.24531 5.50006 1.5 8.45682 1.5 12H6.5C6.5 11.0534 7.16875 10.5001 7.85181 10.5001V5.50006ZM1.5 12C1.5 11.1716 2.1716 10.5 3 10.5V15.5C4.93296 15.5 6.5 13.933 6.5 12H1.5ZM3 10.5C3.8284 10.5 4.5 11.1716 4.5 12H-0.5C-0.5 13.933 1.06704 15.5 3 15.5V10.5ZM4.5 12C4.5 10.0088 6.00516 8.50006 7.85181 8.50006V3.50006C3.05942 3.50006 -0.5 7.43534 -0.5 12H4.5ZM7.85181 8.50006H17.5858V3.50006H7.85181V8.50006ZM19.3536 4.23233L18.0607 2.93938L14.5251 6.47484L15.818 7.76779L19.3536 4.23233ZM18.0607 2.93941C18.6465 3.52518 18.6465 4.47482 18.0607 5.06059L14.5251 1.52519C13.1583 2.89202 13.1583 5.10798 14.5251 6.47481L18.0607 2.93941ZM21 13.5C20.1716 13.5 19.5 12.8284 19.5 12H24.5C24.5 10.067 22.933 8.5 21 8.5V13.5ZM19.5 12C19.5 13.9093 17.8854 15.5001 15.9578 15.5001V20.5001C20.5696 20.5001 24.5 16.7473 24.5 12H19.5ZM15.9578 15.5001H6.41427V20.5001H15.9578V15.5001ZM4.64653 19.7679L5.93937 21.0607L9.47485 17.5251L8.18201 16.2323L4.64653 19.7679ZM5.93939 21.0607C5.35354 20.4749 5.35354 19.5251 5.93939 18.9393L9.47483 22.4749C10.8417 21.1081 10.8417 18.8919 9.47483 17.5251L5.93939 21.0607ZM5.93941 18.9393C6.52518 18.3535 7.47482 18.3535 8.06059 18.9393L4.52519 22.4749C5.89202 23.8417 8.10798 23.8417 9.47481 22.4749L5.93941 18.9393ZM8.06066 18.9393L5.06066 15.9393L1.52512 19.4749L4.52512 22.4749L8.06066 18.9393ZM5.06061 15.9393C5.64646 16.5251 5.64646 17.4749 5.06061 18.0607L1.52517 14.5251C0.158277 15.8919 0.158277 18.1081 1.52517 19.4749L5.06061 15.9393ZM5.06066 18.0607L8.06066 15.0607L4.52512 11.5251L1.52512 14.5251L5.06066 18.0607ZM8.06059 15.0607C7.47482 15.6465 6.52518 15.6465 5.93941 15.0607L9.47481 11.5251C8.10798 10.1583 5.89202 10.1583 4.52519 11.5251L8.06059 15.0607ZM5.93939 15.0607C5.35354 14.4749 5.35354 13.5251 5.93939 12.9393L9.47483 16.4749C10.8417 15.1081 10.8417 12.8919 9.47483 11.5251L5.93939 15.0607ZM5.93932 12.9394L4.64636 14.2324L8.18194 17.7678L9.4749 16.4748L5.93932 12.9394ZM6.41415 18.5001H15.9578V13.5001H6.41415V18.5001ZM15.9578 18.5001C19.4991 18.5001 22.5 15.609 22.5 12H17.5C17.5 12.78 16.8057 13.5001 15.9578 13.5001V18.5001ZM22.5 12C22.5 12.8284 21.8284 13.5 21 13.5V8.5C19.067 8.5 17.5 10.067 17.5 12H22.5Z" fill="white" mask="url(#path-1-inside-1_4027_3290)"/>
</g>
<defs>
<clipPath id="clip0_4027_3290">
<rect width="24" height="24" fill="white"/>
</clipPath>
</defs>
</svg>
