<svg width="16" height="16" viewBox="0 0 16 16" fill="none" xmlns="http://www.w3.org/2000/svg">
<g clip-path="url(#clip0_4323_6982)">
<path d="M7.74941 9.65467C8.80996 9.65467 9.66971 8.79492 9.66971 7.73436C9.66971 6.67381 8.80996 5.81406 7.74941 5.81406C6.68885 5.81406 5.8291 6.67381 5.8291 7.73436C5.8291 8.79492 6.68885 9.65467 7.74941 9.65467Z" stroke="#8691A7" stroke-width="1.3"/>
<path d="M8.87914 1.43062C8.64422 1.33333 8.34593 1.33333 7.74936 1.33333C7.15278 1.33333 6.85449 1.33333 6.61958 1.43062C6.46415 1.49496 6.32292 1.5893 6.20397 1.70825C6.08502 1.8272 5.99068 1.96843 5.92635 2.12385C5.86746 2.2666 5.84377 2.43366 5.83481 2.67626C5.83064 2.8516 5.78207 3.02303 5.69363 3.17449C5.60519 3.32595 5.47978 3.45251 5.32913 3.54232C5.17602 3.62795 5.00369 3.67333 4.82827 3.67423C4.65285 3.67512 4.48006 3.6315 4.32609 3.54744C4.11102 3.4335 3.95547 3.37077 3.80121 3.35029C3.46472 3.30604 3.12443 3.39721 2.85514 3.60377C2.65414 3.75931 2.50436 4.01728 2.20607 4.53384C1.90778 5.0504 1.758 5.30836 1.72536 5.5612C1.70336 5.72792 1.71442 5.89734 1.75792 6.05977C1.80141 6.22221 1.87648 6.37449 1.97884 6.50791C2.07357 6.63081 2.20607 6.73387 2.41154 6.86317C2.71431 7.05328 2.9089 7.37717 2.9089 7.73435C2.9089 8.09153 2.71431 8.41542 2.41154 8.60489C2.20607 8.73483 2.07293 8.83788 1.97884 8.96078C1.87648 9.0942 1.80141 9.24648 1.75792 9.40892C1.71442 9.57136 1.70336 9.74078 1.72536 9.9075C1.75864 10.1597 1.90778 10.4183 2.20543 10.9349C2.50436 11.4514 2.6535 11.7094 2.85514 11.8649C2.98856 11.9673 3.14084 12.0424 3.30327 12.0858C3.46571 12.1293 3.63513 12.1404 3.80185 12.1184C3.95547 12.0979 4.11102 12.0352 4.32609 11.9213C4.48006 11.8372 4.65285 11.7936 4.82827 11.7945C5.00369 11.7954 5.17602 11.8407 5.32913 11.9264C5.6383 12.1056 5.82201 12.4353 5.83481 12.7924C5.84377 13.0357 5.86682 13.2021 5.92635 13.3448C5.99068 13.5003 6.08502 13.6415 6.20397 13.7604C6.32292 13.8794 6.46415 13.9737 6.61958 14.0381C6.85449 14.1354 7.15278 14.1354 7.74936 14.1354C8.34593 14.1354 8.64422 14.1354 8.87914 14.0381C9.03456 13.9737 9.17579 13.8794 9.29474 13.7604C9.41369 13.6415 9.50803 13.5003 9.57237 13.3448C9.63126 13.2021 9.65494 13.0357 9.6639 12.7924C9.6767 12.4353 9.86041 12.105 10.1696 11.9264C10.3227 11.8407 10.495 11.7954 10.6704 11.7945C10.8459 11.7936 11.0186 11.8372 11.1726 11.9213C11.3877 12.0352 11.5432 12.0979 11.6969 12.1184C11.8636 12.1404 12.033 12.1293 12.1954 12.0858C12.3579 12.0424 12.5102 11.9673 12.6436 11.8649C12.8452 11.71 12.9944 11.4514 13.2926 10.9349C13.5909 10.4183 13.7407 10.1603 13.7734 9.9075C13.7954 9.74078 13.7843 9.57136 13.7408 9.40892C13.6973 9.24648 13.6222 9.0942 13.5199 8.96078C13.4251 8.83788 13.2926 8.73483 13.0872 8.60553C12.9373 8.51425 12.8131 8.38645 12.7261 8.23408C12.6391 8.08172 12.5922 7.90978 12.5898 7.73435C12.5898 7.37717 12.7844 7.05328 13.0872 6.86381C13.2926 6.73387 13.4258 6.63081 13.5199 6.50791C13.6222 6.37449 13.6973 6.22221 13.7408 6.05977C13.7843 5.89734 13.7954 5.72792 13.7734 5.5612C13.7401 5.309 13.5909 5.0504 13.2933 4.53384C12.9944 4.01728 12.8452 3.75931 12.6436 3.60377C12.5102 3.50141 12.3579 3.42634 12.1954 3.38285C12.033 3.33936 11.8636 3.32829 11.6969 3.35029C11.5432 3.37077 11.3877 3.4335 11.172 3.54744C11.0181 3.63139 10.8454 3.67495 10.6701 3.67405C10.4948 3.67316 10.3226 3.62783 10.1696 3.54232C10.0189 3.45251 9.89352 3.32595 9.80508 3.17449C9.71664 3.02303 9.66807 2.8516 9.6639 2.67626C9.65494 2.43302 9.6319 2.2666 9.57237 2.12385C9.50803 1.96843 9.41369 1.8272 9.29474 1.70825C9.17579 1.5893 9.03456 1.49496 8.87914 1.43062Z" stroke="#8691A7" stroke-width="1.3"/>
</g>
<defs>
<clipPath id="clip0_4323_6982">
<rect width="16" height="16" fill="white"/>
</clipPath>
</defs>
</svg>
