<svg width="16" height="16" viewBox="0 0 16 16" fill="none" xmlns="http://www.w3.org/2000/svg">
<g clip-path="url(#clip0_4323_6977)">
<path d="M8.58647 14.6666L8.37574 12.6666H8.165C6.17004 12.6666 4.47713 12.1166 3.08628 11.0166C1.69543 9.91665 1 8.57776 1 6.99998C1 5.4222 1.69543 4.08331 3.08628 2.98331C4.47713 1.88331 6.17004 1.33331 8.165 1.33331C9.16248 1.33331 10.0934 1.48042 10.9577 1.77465C11.822 2.06887 12.5806 2.47442 13.2336 2.99131C13.8866 3.5082 14.3991 4.1082 14.7711 4.79131C15.1431 5.47442 15.3294 6.21065 15.33 6.99998C15.33 7.83331 15.158 8.63331 14.8141 9.39998C14.4702 10.1666 13.9993 10.8778 13.4014 11.5333C12.8034 12.1889 12.0939 12.7833 11.2729 13.3166C10.4519 13.85 9.55641 14.3 8.58647 14.6666ZM10.2724 12.2333C11.2698 11.5666 12.0813 10.7862 12.7068 9.89198C13.3322 8.99776 13.6447 8.03376 13.6441 6.99998C13.6441 5.78887 13.1136 4.76398 12.0526 3.92531C10.9917 3.08665 9.69578 2.66709 8.165 2.66665C6.63422 2.6662 5.33834 3.08576 4.27736 3.92531C3.21637 4.76487 2.68588 5.78976 2.68588 6.99998C2.68588 8.2102 3.21637 9.23531 4.27736 10.0753C5.33834 10.9153 6.63422 11.3346 8.165 11.3333H10.2724V12.2333ZM8.14393 10.65C8.38276 10.65 8.58647 10.5833 8.75506 10.45C8.92365 10.3166 9.00794 10.1555 9.00794 9.96665C9.00794 9.77776 8.92365 9.61665 8.75506 9.48331C8.58647 9.34998 8.38276 9.28331 8.14393 9.28331C7.90509 9.28331 7.70138 9.34998 7.53279 9.48331C7.36421 9.61665 7.27991 9.77776 7.27991 9.96665C7.27991 10.1555 7.36421 10.3166 7.53279 10.45C7.70138 10.5833 7.90509 10.65 8.14393 10.65ZM7.53279 8.53331H8.79721C8.79721 8.19998 8.83935 7.96665 8.92365 7.83331C9.00794 7.69998 9.27487 7.45553 9.72444 7.09998C9.97732 6.89998 10.1881 6.68331 10.3566 6.44998C10.5252 6.21665 10.6095 5.96665 10.6095 5.69998C10.6095 5.13331 10.3673 4.70842 9.88291 4.42531C9.3985 4.1422 8.82587 4.00042 8.165 3.99998C7.54684 3.99998 7.02703 4.1362 6.60556 4.40865C6.18409 4.68109 5.88906 5.01154 5.72047 5.39998L6.90059 5.76665C6.97083 5.57776 7.1043 5.39176 7.30099 5.20865C7.49767 5.02554 7.78568 4.93376 8.165 4.93331C8.54432 4.93287 8.82896 5.0162 9.0189 5.18331C9.20884 5.35042 9.30353 5.53376 9.30297 5.73331C9.30297 5.9222 9.23273 6.09176 9.09224 6.24198C8.95175 6.3922 8.78316 6.54487 8.58647 6.69998C8.09475 7.03331 7.79635 7.29731 7.69127 7.49198C7.58618 7.68665 7.53336 8.03376 7.53279 8.53331Z" fill="#8691A7"/>
</g>
<defs>
<clipPath id="clip0_4323_6977">
<rect width="16" height="16" fill="white"/>
</clipPath>
</defs>
</svg>
