<svg width="16" height="16" viewBox="0 0 16 16" fill="none" xmlns="http://www.w3.org/2000/svg">
<path d="M10.5 5.5V4.25C10.5 3.91848 10.3683 3.60054 10.1339 3.36612C9.89946 3.1317 9.58152 3 9.25 3H3.25C2.91848 3 2.60054 3.1317 2.36612 3.36612C2.1317 3.60054 2 3.91848 2 4.25V11.75C2 12.0815 2.1317 12.3995 2.36612 12.6339C2.60054 12.8683 2.91848 13 3.25 13H9.25C9.58152 13 9.89946 12.8683 10.1339 12.6339C10.3683 12.3995 10.5 12.0815 10.5 11.75V10.5M12.5 5.5L15 8M15 8L12.5 10.5M15 8H6.46875" stroke="#EF4444" stroke-width="1.35" stroke-linecap="round" stroke-linejoin="round"/>
</svg>
