<svg width="16" height="16" viewBox="0 0 16 16" fill="none" xmlns="http://www.w3.org/2000/svg">
<path fill-rule="evenodd" clip-rule="evenodd" d="M7.89147 14.6658L8.00015 14.6667C7.85297 14.6667 7.70583 14.6619 7.55896 14.6523C7.37721 14.6404 7.19602 14.6211 7.01584 14.5945C6.80652 14.5635 6.59879 14.5225 6.39337 14.4718C6.19088 14.4216 5.99086 14.362 5.794 14.293L5.7929 14.2926C5.46871 14.1789 5.15385 14.0401 4.85118 13.8776C4.63637 13.7623 4.42806 13.6352 4.22718 13.497C4.00129 13.3417 3.78517 13.1726 3.58003 12.9908C3.50835 12.9273 3.43805 12.8622 3.36915 12.7957C2.114 11.5833 1.3335 9.88281 1.3335 8C1.3335 4.31813 4.31828 1.33334 8.00015 1.33334C8.87563 1.33334 9.74254 1.50577 10.5514 1.8408C11.3602 2.17583 12.0952 2.66689 12.7142 3.28595C13.3333 3.90501 13.8243 4.63994 14.1594 5.44877C14.4944 6.25761 14.6668 7.12452 14.6668 8C14.6668 9.88288 13.8863 11.5834 12.6311 12.7957C12.631 12.7958 12.631 12.796 12.6311 12.7961C12.3153 13.1009 11.9704 13.374 11.6013 13.6114L11.5961 13.6147C11.5124 13.6684 11.4275 13.7203 11.3414 13.7702L11.3323 13.7755C11.1818 13.8625 11.0279 13.9436 10.871 14.0186C10.8096 14.0479 10.7477 14.0763 10.6855 14.1038C10.6206 14.1323 10.5552 14.1598 10.4895 14.1864C10.4257 14.212 10.3616 14.2367 10.2972 14.2604C10.232 14.2843 10.1664 14.3072 10.1006 14.3291C10.0358 14.3505 9.97078 14.3709 9.90543 14.3904C9.83619 14.411 9.76663 14.4305 9.69678 14.4489C9.62879 14.4667 9.56053 14.4834 9.49203 14.4991C9.42367 14.5147 9.35508 14.5293 9.28628 14.5427C9.00582 14.5975 8.72211 14.6342 8.43693 14.6526C8.36606 14.6572 8.29511 14.6607 8.22412 14.663L8.22275 14.663C8.11236 14.6667 8.0019 14.6676 7.89147 14.6658ZM8.66684 10.6667H7.3335C6.27153 10.6667 5.34275 11.2916 4.91578 12.2053L4.8675 12.316L4.90928 12.3469C5.66915 12.8882 6.577 13.2352 7.56034 13.3155C7.58969 13.3179 7.61911 13.32 7.64859 13.3219L7.5644 13.3158C7.59305 13.3181 7.62176 13.3202 7.65053 13.3221L7.64859 13.3219C7.67709 13.3238 7.70563 13.3254 7.73421 13.3268L7.65053 13.3221C7.68021 13.324 7.70999 13.3257 7.73984 13.3271L7.73421 13.3268C7.75565 13.3279 7.77709 13.3288 7.79853 13.3296L8.00015 13.3333L8.08375 13.3327C8.11448 13.3323 8.14521 13.3315 8.17593 13.3305L8.09156 13.3326C8.12 13.3321 8.14838 13.3314 8.17671 13.3305L8.17593 13.3305C8.2045 13.3296 8.23302 13.3284 8.2615 13.3271L8.17671 13.3305C8.20609 13.3295 8.23545 13.3283 8.26481 13.3269L8.2615 13.3271C8.29116 13.3256 8.32075 13.3239 8.35025 13.3221L8.26481 13.3269C8.2937 13.3255 8.32256 13.3238 8.35137 13.322L8.35028 13.322C8.37915 13.3202 8.40797 13.3181 8.43672 13.3158L8.35134 13.322C8.38072 13.3201 8.41006 13.3179 8.43937 13.3155L8.43672 13.3158C8.46463 13.3135 8.49249 13.311 8.52028 13.3083L8.43937 13.3155C8.46854 13.3132 8.49764 13.3105 8.52668 13.3077L8.52028 13.3083C9.47078 13.2163 10.3483 12.8748 11.0865 12.3501L11.1322 12.316L11.0846 12.2054C10.6763 11.3314 9.80875 10.7216 8.80459 10.6702L8.66684 10.6667ZM8.00015 2.66669C5.05465 2.66669 2.66684 5.0545 2.66684 8C2.66684 9.272 3.11212 10.44 3.85531 11.3566C4.54368 10.1481 5.84343 9.33334 7.3335 9.33334H8.66684C10.1569 9.33334 11.4567 10.1481 12.145 11.3565C12.8882 10.44 13.3335 9.272 13.3335 8C13.3335 5.0545 10.9457 2.66669 8.00015 2.66669ZM8.00015 3.33334C9.47293 3.33334 10.6668 4.52725 10.6668 6C10.6668 7.42812 9.54418 8.59406 8.13325 8.66344L8.00015 8.66669C6.5274 8.66669 5.3335 7.47278 5.3335 6C5.3335 4.57188 6.45615 3.40594 7.86706 3.33659L8.00015 3.33334ZM8.00015 4.66669C7.26378 4.66669 6.66684 5.26363 6.66684 6C6.66684 6.73637 7.26378 7.33334 8.00015 7.33334C8.73653 7.33334 9.3335 6.73637 9.3335 6C9.3335 5.26363 8.73653 4.66669 8.00015 4.66669Z" fill="#8691A7"/>
</svg>
