<svg width="20" height="20" viewBox="0 0 20 20" fill="none" xmlns="http://www.w3.org/2000/svg">
<path d="M3.33337 15.8337V8.33366C3.33337 8.06977 3.39254 7.81977 3.51087 7.58366C3.62921 7.34755 3.79226 7.1531 4.00004 7.00033L9.00004 3.25033C9.29171 3.0281 9.62504 2.91699 10 2.91699C10.375 2.91699 10.7084 3.0281 11 3.25033L16 7.00033C16.2084 7.1531 16.3717 7.34755 16.49 7.58366C16.6084 7.81977 16.6673 8.06977 16.6667 8.33366V15.8337C16.6667 16.292 16.5034 16.6845 16.1767 17.0112C15.85 17.3378 15.4578 17.5009 15 17.5003H12.5C12.2639 17.5003 12.0662 17.4203 11.9067 17.2603C11.7473 17.1003 11.6673 16.9025 11.6667 16.667V12.5003C11.6667 12.2642 11.5867 12.0664 11.4267 11.907C11.2667 11.7475 11.0689 11.6675 10.8334 11.667H9.16671C8.9306 11.667 8.73282 11.747 8.57337 11.907C8.41393 12.067 8.33393 12.2648 8.33337 12.5003V16.667C8.33337 16.9031 8.25337 17.1012 8.09337 17.2612C7.93337 17.4212 7.7356 17.5009 7.50004 17.5003H5.00004C4.54171 17.5003 4.14949 17.3373 3.82337 17.0112C3.49726 16.685 3.33393 16.2925 3.33337 15.8337Z" fill="#3E9EE3"/>
</svg>
