<svg width="20" height="20" viewBox="0 0 20 20" fill="none" xmlns="http://www.w3.org/2000/svg">
<g clip-path="url(#clip0_5310_45099)">
<path d="M17.5 17.5002L13.8808 13.881M13.8808 13.881C14.4999 13.2619 14.991 12.527 15.326 11.7181C15.661 10.9093 15.8335 10.0423 15.8335 9.16684C15.8335 8.29134 15.6611 7.42441 15.326 6.61555C14.991 5.80669 14.4999 5.07174 13.8808 4.45267C13.2617 3.8336 12.5268 3.34252 11.7179 3.00748C10.9091 2.67244 10.0422 2.5 9.16666 2.5C8.29115 2.5 7.42422 2.67244 6.61537 3.00748C5.80651 3.34252 5.07156 3.8336 4.45249 4.45267C3.20221 5.70295 2.49982 7.39868 2.49982 9.16684C2.49982 10.935 3.20221 12.6307 4.45249 13.881C5.70276 15.1313 7.3985 15.8337 9.16666 15.8337C10.9348 15.8337 12.6305 15.1313 13.8808 13.881Z" stroke="#3E9EE3" stroke-width="1.75" stroke-linecap="round" stroke-linejoin="round"/>
</g>
<defs>
<clipPath id="clip0_5310_45099">
<rect width="20" height="20" fill="white"/>
</clipPath>
</defs>
</svg>
