<svg width="20" height="20" viewBox="0 0 20 20" fill="none" xmlns="http://www.w3.org/2000/svg">
<g clip-path="url(#clip0_5367_34330)">
<path fill-rule="evenodd" clip-rule="evenodd" d="M9.86415 18.3326L10 18.3337C9.81603 18.3336 9.63211 18.3276 9.44852 18.3157C9.22133 18.3008 8.99485 18.2767 8.76962 18.2434C8.50796 18.2047 8.24831 18.1535 7.99153 18.09C7.73841 18.0274 7.48839 17.9528 7.24231 17.8666L7.24094 17.8661C6.8357 17.7239 6.44214 17.5505 6.0638 17.3473C5.79528 17.2031 5.53489 17.0443 5.2838 16.8716C5.00143 16.6774 4.73127 16.4661 4.47485 16.2388C4.38526 16.1594 4.29737 16.0781 4.21126 15.9949C2.64231 14.4795 1.66669 12.3538 1.66669 10.0003C1.66669 5.39797 5.39766 1.66699 10 1.66699C11.0944 1.66699 12.178 1.88253 13.189 2.30132C14.2001 2.7201 15.1188 3.33393 15.8926 4.10775C16.6664 4.88157 17.2802 5.80023 17.699 6.81128C18.1178 7.82233 18.3334 8.90596 18.3334 10.0003C18.3334 12.3539 17.3577 14.4796 15.7887 15.995C15.7886 15.9951 15.7886 15.9953 15.7887 15.9955C15.394 16.3765 14.9628 16.7178 14.5014 17.0145L14.495 17.0186C14.3903 17.0859 14.2842 17.1507 14.1766 17.213L14.1652 17.2197C13.977 17.3285 13.7846 17.4298 13.5885 17.5236C13.5118 17.5602 13.4345 17.5956 13.3567 17.63C13.2755 17.6657 13.1939 17.7001 13.1117 17.7333C13.032 17.7653 12.9518 17.7962 12.8713 17.8258C12.7898 17.8556 12.7079 17.8843 12.6256 17.9116C12.5446 17.9384 12.4633 17.964 12.3816 17.9884C12.2951 18.0141 12.2081 18.0384 12.1208 18.0614C12.0358 18.0837 11.9505 18.1046 11.8649 18.1242C11.7794 18.1437 11.6937 18.1619 11.6077 18.1787C11.2571 18.2472 10.9025 18.2931 10.546 18.3161C10.4574 18.3218 10.3687 18.3261 10.28 18.3291L10.2782 18.3291C10.1403 18.3336 10.0022 18.3348 9.86415 18.3326ZM10.8334 13.3337H9.16669C7.83923 13.3337 6.67825 14.1148 6.14454 15.257L6.08419 15.3953L6.13641 15.4339C7.08626 16.1105 8.22106 16.5443 9.45024 16.6446C9.48693 16.6476 9.52371 16.6503 9.56055 16.6527L9.45532 16.645C9.49113 16.648 9.52701 16.6506 9.56298 16.6529L9.56055 16.6527C9.59618 16.6551 9.63186 16.6571 9.66759 16.6589L9.56298 16.6529C9.60008 16.6553 9.6373 16.6574 9.67462 16.6592L9.66759 16.6589C9.69438 16.6602 9.72118 16.6613 9.74798 16.6623L10 16.667L10.1045 16.6662C10.1429 16.6656 10.1813 16.6647 10.2197 16.6635L10.1143 16.666C10.1498 16.6654 10.1853 16.6646 10.2207 16.6634L10.2197 16.6634C10.2554 16.6623 10.2911 16.6609 10.3267 16.6591L10.2207 16.6634C10.2574 16.6622 10.2941 16.6607 10.3308 16.6589L10.3267 16.6591C10.3638 16.6573 10.4008 16.6552 10.4376 16.6529L10.3308 16.6589C10.3669 16.6572 10.403 16.6551 10.439 16.6528L10.4377 16.6529C10.4738 16.6505 10.5098 16.6479 10.5457 16.645L10.439 16.6528C10.4757 16.6504 10.5124 16.6477 10.549 16.6447L10.5457 16.645C10.5806 16.6421 10.6154 16.639 10.6502 16.6357L10.549 16.6447C10.5855 16.6418 10.6219 16.6385 10.6582 16.6349L10.6502 16.6357C11.8383 16.5207 12.9352 16.0938 13.8579 15.438L13.915 15.3953L13.8556 15.2571C13.3452 14.1646 12.2607 13.4023 11.0056 13.338L10.8334 13.3337ZM10 3.33367C6.31813 3.33367 3.33337 6.31844 3.33337 10.0003C3.33337 11.5903 3.88997 13.0503 4.81895 14.196C5.67942 12.6854 7.30411 11.667 9.16669 11.667H10.8334C12.696 11.667 14.3207 12.6855 15.181 14.1959C16.11 13.0503 16.6667 11.5903 16.6667 10.0003C16.6667 6.31844 13.6819 3.33367 10 3.33367ZM10 4.16699C11.841 4.16699 13.3334 5.65938 13.3334 7.50031C13.3334 9.28547 11.93 10.7429 10.1664 10.8296L10 10.8337C8.15907 10.8337 6.66669 9.34129 6.66669 7.50031C6.66669 5.71516 8.07001 4.25773 9.83364 4.17105L10 4.16699ZM10 5.83367C9.07954 5.83367 8.33337 6.57984 8.33337 7.50031C8.33337 8.42078 9.07954 9.16699 10 9.16699C10.9205 9.16699 11.6667 8.42078 11.6667 7.50031C11.6667 6.57984 10.9205 5.83367 10 5.83367Z" fill="#3E9EE3"/>
</g>
<defs>
<clipPath id="clip0_5367_34330">
<rect width="20" height="20" fill="white"/>
</clipPath>
</defs>
</svg>
