<svg width="14" height="15" viewBox="0 0 14 15" fill="none" xmlns="http://www.w3.org/2000/svg">
<g clip-path="url(#clip0_3509_26010)">
<path d="M6.99984 1.66669C10.2216 1.66669 12.8332 4.27827 12.8332 7.50002C12.8332 10.7218 10.2216 13.3334 6.99984 13.3334C3.77809 13.3334 1.1665 10.7218 1.1665 7.50002C1.1665 4.27827 3.77809 1.66669 6.99984 1.66669ZM6.99984 2.83335C5.76216 2.83335 4.57518 3.32502 3.70001 4.20019C2.82484 5.07536 2.33317 6.26234 2.33317 7.50002C2.33317 8.7377 2.82484 9.92468 3.70001 10.7999C4.57518 11.675 5.76216 12.1667 6.99984 12.1667C8.23751 12.1667 9.4245 11.675 10.2997 10.7999C11.1748 9.92468 11.6665 8.7377 11.6665 7.50002C11.6665 6.26234 11.1748 5.07536 10.2997 4.20019C9.4245 3.32502 8.23751 2.83335 6.99984 2.83335ZM6.99984 9.25002C7.15455 9.25002 7.30292 9.31148 7.41232 9.42088C7.52171 9.53027 7.58317 9.67864 7.58317 9.83335C7.58317 9.98806 7.52171 10.1364 7.41232 10.2458C7.30292 10.3552 7.15455 10.4167 6.99984 10.4167C6.84513 10.4167 6.69675 10.3552 6.58736 10.2458C6.47796 10.1364 6.4165 9.98806 6.4165 9.83335C6.4165 9.67864 6.47796 9.53027 6.58736 9.42088C6.69675 9.31148 6.84513 9.25002 6.99984 9.25002ZM6.99984 4.00002C7.15455 4.00002 7.30292 4.06148 7.41232 4.17088C7.52171 4.28027 7.58317 4.42864 7.58317 4.58335V8.08335C7.58317 8.23806 7.52171 8.38644 7.41232 8.49583C7.30292 8.60523 7.15455 8.66669 6.99984 8.66669C6.84513 8.66669 6.69675 8.60523 6.58736 8.49583C6.47796 8.38644 6.4165 8.23806 6.4165 8.08335V4.58335C6.4165 4.42864 6.47796 4.28027 6.58736 4.17088C6.69675 4.06148 6.84513 4.00002 6.99984 4.00002Z" fill="#EF4444"/>
</g>
<defs>
<clipPath id="clip0_3509_26010">
<rect width="14" height="14" fill="white" transform="translate(0 0.5)"/>
</clipPath>
</defs>
</svg>
